<svg width="251" height="71" viewBox="0 0 251 71" fill="none" xmlns="http://www.w3.org/2000/svg">
    <g filter="url(#filter0_d_1_40)">
        <path d="M24.88 54.016C22.128 54.016 19.952 53.312 18.352 51.904C16.784 50.464 16 48.512 16 46.048C16 43.552 16.832 41.6 18.496 40.192C20.192 38.752 22.512 38.032 25.456 38.032H32.8V35.584C32.8 34.144 32.352 33.024 31.456 32.224C30.56 31.424 29.296 31.024 27.664 31.024C26.224 31.024 25.024 31.344 24.064 31.984C23.104 32.592 22.544 33.408 22.384 34.432H17.296C17.584 32.064 18.672 30.176 20.56 28.768C22.48 27.36 24.896 26.656 27.808 26.656C30.944 26.656 33.424 27.456 35.248 29.056C37.072 30.624 37.984 32.768 37.984 35.488V53.536H32.944V48.688H32.08L32.944 47.728C32.944 49.648 32.208 51.184 30.736 52.336C29.264 53.456 27.312 54.016 24.88 54.016ZM26.416 50.032C28.272 50.032 29.792 49.568 30.976 48.64C32.192 47.68 32.8 46.464 32.8 44.992V41.536H25.552C24.208 41.536 23.136 41.904 22.336 42.64C21.568 43.376 21.184 44.384 21.184 45.664C21.184 47.008 21.648 48.08 22.576 48.88C23.504 49.648 24.784 50.032 26.416 50.032ZM55.2933 54.016C52.1253 54.016 49.5972 53.104 47.7092 51.28C45.8212 49.424 44.8772 46.912 44.8772 43.744V27.136H50.0613V43.744C50.0613 45.568 50.5253 46.992 51.4533 48.016C52.3813 49.008 53.6613 49.504 55.2933 49.504C56.9573 49.504 58.2533 49.008 59.1813 48.016C60.1413 46.992 60.6213 45.568 60.6213 43.744V27.136H65.8053V43.744C65.8053 46.912 64.8453 49.424 62.9253 51.28C61.0373 53.104 58.4933 54.016 55.2933 54.016ZM86.0425 53.536C83.6425 53.536 81.7705 52.88 80.4265 51.568C79.0825 50.256 78.4105 48.432 78.4105 46.096V31.84H71.1145V27.136H78.4105V19.696H83.5945V27.136H93.9145V31.84H83.5945V46.096C83.5945 47.92 84.4745 48.832 86.2345 48.832H93.4345V53.536H86.0425ZM110.984 53.968C108.808 53.968 106.92 53.552 105.32 52.72C103.72 51.888 102.488 50.704 101.624 49.168C100.76 47.632 100.328 45.824 100.328 43.744V36.928C100.328 34.816 100.76 33.008 101.624 31.504C102.488 29.968 103.72 28.784 105.32 27.952C106.92 27.12 108.808 26.704 110.984 26.704C113.16 26.704 115.048 27.12 116.648 27.952C118.248 28.784 119.48 29.968 120.344 31.504C121.208 33.008 121.64 34.816 121.64 36.928V43.744C121.64 45.824 121.208 47.632 120.344 49.168C119.48 50.704 118.248 51.888 116.648 52.72C115.048 53.552 113.16 53.968 110.984 53.968ZM110.984 49.408C112.744 49.408 114.104 48.928 115.064 47.968C116.024 46.976 116.504 45.568 116.504 43.744V36.928C116.504 35.072 116.024 33.664 115.064 32.704C114.104 31.744 112.744 31.264 110.984 31.264C109.256 31.264 107.896 31.744 106.904 32.704C105.944 33.664 105.464 35.072 105.464 36.928V43.744C105.464 45.568 105.944 46.976 106.904 47.968C107.896 48.928 109.256 49.408 110.984 49.408ZM129.301 53.536V27.136H134.293V32.176H135.541L133.957 35.296C133.957 32.448 134.581 30.304 135.829 28.864C137.077 27.392 138.933 26.656 141.397 26.656C144.213 26.656 146.437 27.536 148.069 29.296C149.733 31.024 150.565 33.408 150.565 36.448V38.224H145.237V36.88C145.237 34.992 144.757 33.552 143.797 32.56C142.869 31.536 141.557 31.024 139.861 31.024C138.165 31.024 136.837 31.536 135.877 32.56C134.949 33.584 134.485 35.024 134.485 36.88V53.536H129.301ZM163.986 54.016C161.234 54.016 159.058 53.312 157.458 51.904C155.89 50.464 155.106 48.512 155.106 46.048C155.106 43.552 155.938 41.6 157.602 40.192C159.298 38.752 161.618 38.032 164.562 38.032H171.906V35.584C171.906 34.144 171.458 33.024 170.562 32.224C169.666 31.424 168.402 31.024 166.77 31.024C165.33 31.024 164.13 31.344 163.17 31.984C162.21 32.592 161.65 33.408 161.49 34.432H156.402C156.69 32.064 157.778 30.176 159.666 28.768C161.586 27.36 164.002 26.656 166.914 26.656C170.05 26.656 172.53 27.456 174.354 29.056C176.178 30.624 177.09 32.768 177.09 35.488V53.536H172.05V48.688H171.186L172.05 47.728C172.05 49.648 171.314 51.184 169.842 52.336C168.37 53.456 166.418 54.016 163.986 54.016ZM165.522 50.032C167.378 50.032 168.898 49.568 170.082 48.64C171.298 47.68 171.906 46.464 171.906 44.992V41.536H164.658C163.314 41.536 162.242 41.904 161.442 42.64C160.674 43.376 160.29 44.384 160.29 45.664C160.29 47.008 160.754 48.08 161.682 48.88C162.61 49.648 163.89 50.032 165.522 50.032ZM183.936 53.536V48.832H193.2V31.84H185.136V27.136H198.24V48.832H206.736V53.536H183.936ZM195.216 22.576C194.096 22.576 193.2 22.288 192.528 21.712C191.856 21.104 191.52 20.304 191.52 19.312C191.52 18.288 191.856 17.488 192.528 16.912C193.2 16.304 194.096 16 195.216 16C196.336 16 197.232 16.304 197.904 16.912C198.576 17.488 198.912 18.288 198.912 19.312C198.912 20.304 198.576 21.104 197.904 21.712C197.232 22.288 196.336 22.576 195.216 22.576ZM226.061 53.536C224.429 53.536 223.005 53.216 221.789 52.576C220.573 51.904 219.613 50.96 218.909 49.744C218.237 48.528 217.901 47.12 217.901 45.52V23.2H209.261V18.496H223.085V45.52C223.085 46.544 223.373 47.36 223.949 47.968C224.525 48.544 225.309 48.832 226.301 48.832H234.461V53.536H226.061Z" fill="#6E18B3"/>
    </g>
    <defs>
        <filter id="filter0_d_1_40" x="0" y="0" width="250.461" height="70.016" filterUnits="userSpaceOnUse" color-interpolation-filters="sRGB">
            <feFlood flood-opacity="0" result="BackgroundImageFix"/>
            <feColorMatrix in="SourceAlpha" type="matrix" values="0 0 0 0 0 0 0 0 0 0 0 0 0 0 0 0 0 0 127 0" result="hardAlpha"/>
            <feOffset/>
            <feGaussianBlur stdDeviation="8"/>
            <feComposite in2="hardAlpha" operator="out"/>
            <feColorMatrix type="matrix" values="0 0 0 0 0.431373 0 0 0 0 0.0941176 0 0 0 0 0.701961 0 0 0 0.5 0"/>
            <feBlend mode="normal" in2="BackgroundImageFix" result="effect1_dropShadow_1_40"/>
            <feBlend mode="normal" in="SourceGraphic" in2="effect1_dropShadow_1_40" result="shape"/>
        </filter>
    </defs>
</svg>
