<svg width="307" height="80" viewBox="0 0 307 80" fill="none" xmlns="http://www.w3.org/2000/svg">
    <g filter="url(#filter0_d_3_18)">
        <path d="M80.76 54.016C78.008 54.016 75.832 53.312 74.232 51.904C72.664 50.464 71.88 48.512 71.88 46.048C71.88 43.552 72.712 41.6 74.376 40.192C76.072 38.752 78.392 38.032 81.336 38.032H88.68V35.584C88.68 34.144 88.232 33.024 87.336 32.224C86.44 31.424 85.176 31.024 83.544 31.024C82.104 31.024 80.904 31.344 79.944 31.984C78.984 32.592 78.424 33.408 78.264 34.432H73.176C73.464 32.064 74.552 30.176 76.44 28.768C78.36 27.36 80.776 26.656 83.688 26.656C86.824 26.656 89.304 27.456 91.128 29.056C92.952 30.624 93.864 32.768 93.864 35.488V53.536H88.824V48.688H87.96L88.824 47.728C88.824 49.648 88.088 51.184 86.616 52.336C85.144 53.456 83.192 54.016 80.76 54.016ZM82.296 50.032C84.152 50.032 85.672 49.568 86.856 48.64C88.072 47.68 88.68 46.464 88.68 44.992V41.536H81.432C80.088 41.536 79.016 41.904 78.216 42.64C77.448 43.376 77.064 44.384 77.064 45.664C77.064 47.008 77.528 48.08 78.456 48.88C79.384 49.648 80.664 50.032 82.296 50.032ZM111.173 54.016C108.005 54.016 105.477 53.104 103.589 51.28C101.701 49.424 100.757 46.912 100.757 43.744V27.136H105.941V43.744C105.941 45.568 106.405 46.992 107.333 48.016C108.261 49.008 109.541 49.504 111.173 49.504C112.837 49.504 114.133 49.008 115.061 48.016C116.021 46.992 116.501 45.568 116.501 43.744V27.136H121.685V43.744C121.685 46.912 120.725 49.424 118.805 51.28C116.917 53.104 114.373 54.016 111.173 54.016ZM141.923 53.536C139.523 53.536 137.651 52.88 136.307 51.568C134.963 50.256 134.291 48.432 134.291 46.096V31.84H126.995V27.136H134.291V19.696H139.475V27.136H149.795V31.84H139.475V46.096C139.475 47.92 140.355 48.832 142.115 48.832H149.315V53.536H141.923ZM166.864 53.968C164.688 53.968 162.8 53.552 161.2 52.72C159.6 51.888 158.368 50.704 157.504 49.168C156.64 47.632 156.208 45.824 156.208 43.744V36.928C156.208 34.816 156.64 33.008 157.504 31.504C158.368 29.968 159.6 28.784 161.2 27.952C162.8 27.12 164.688 26.704 166.864 26.704C169.04 26.704 170.928 27.12 172.528 27.952C174.128 28.784 175.36 29.968 176.224 31.504C177.088 33.008 177.52 34.816 177.52 36.928V43.744C177.52 45.824 177.088 47.632 176.224 49.168C175.36 50.704 174.128 51.888 172.528 52.72C170.928 53.552 169.04 53.968 166.864 53.968ZM166.864 49.408C168.624 49.408 169.984 48.928 170.944 47.968C171.904 46.976 172.384 45.568 172.384 43.744V36.928C172.384 35.072 171.904 33.664 170.944 32.704C169.984 31.744 168.624 31.264 166.864 31.264C165.136 31.264 163.776 31.744 162.784 32.704C161.824 33.664 161.344 35.072 161.344 36.928V43.744C161.344 45.568 161.824 46.976 162.784 47.968C163.776 48.928 165.136 49.408 166.864 49.408ZM185.181 53.536V27.136H190.173V32.176H191.421L189.837 35.296C189.837 32.448 190.461 30.304 191.709 28.864C192.957 27.392 194.813 26.656 197.277 26.656C200.093 26.656 202.317 27.536 203.949 29.296C205.613 31.024 206.445 33.408 206.445 36.448V38.224H201.117V36.88C201.117 34.992 200.637 33.552 199.677 32.56C198.749 31.536 197.437 31.024 195.741 31.024C194.045 31.024 192.717 31.536 191.757 32.56C190.829 33.584 190.365 35.024 190.365 36.88V53.536H185.181ZM219.866 54.016C217.114 54.016 214.938 53.312 213.338 51.904C211.77 50.464 210.986 48.512 210.986 46.048C210.986 43.552 211.818 41.6 213.482 40.192C215.178 38.752 217.498 38.032 220.442 38.032H227.786V35.584C227.786 34.144 227.338 33.024 226.442 32.224C225.546 31.424 224.282 31.024 222.65 31.024C221.21 31.024 220.01 31.344 219.05 31.984C218.09 32.592 217.53 33.408 217.37 34.432H212.282C212.57 32.064 213.658 30.176 215.546 28.768C217.466 27.36 219.882 26.656 222.794 26.656C225.93 26.656 228.41 27.456 230.234 29.056C232.058 30.624 232.97 32.768 232.97 35.488V53.536H227.93V48.688H227.066L227.93 47.728C227.93 49.648 227.194 51.184 225.722 52.336C224.25 53.456 222.298 54.016 219.866 54.016ZM221.402 50.032C223.258 50.032 224.778 49.568 225.962 48.64C227.178 47.68 227.786 46.464 227.786 44.992V41.536H220.538C219.194 41.536 218.122 41.904 217.322 42.64C216.554 43.376 216.17 44.384 216.17 45.664C216.17 47.008 216.634 48.08 217.562 48.88C218.49 49.648 219.77 50.032 221.402 50.032ZM239.816 53.536V48.832H249.08V31.84H241.016V27.136H254.12V48.832H262.616V53.536H239.816ZM251.096 22.576C249.976 22.576 249.08 22.288 248.408 21.712C247.736 21.104 247.4 20.304 247.4 19.312C247.4 18.288 247.736 17.488 248.408 16.912C249.08 16.304 249.976 16 251.096 16C252.216 16 253.112 16.304 253.784 16.912C254.456 17.488 254.792 18.288 254.792 19.312C254.792 20.304 254.456 21.104 253.784 21.712C253.112 22.288 252.216 22.576 251.096 22.576ZM281.941 53.536C280.309 53.536 278.885 53.216 277.669 52.576C276.453 51.904 275.493 50.96 274.789 49.744C274.117 48.528 273.781 47.12 273.781 45.52V23.2H265.141V18.496H278.965V45.52C278.965 46.544 279.253 47.36 279.829 47.968C280.405 48.544 281.189 48.832 282.181 48.832H290.341V53.536H281.941Z" fill="#6E18B3"/>
    </g>
    <g filter="url(#filter1_d_3_18)">
        <mask id="mask0_3_18" style="mask-type:luminance" maskUnits="userSpaceOnUse" x="16" y="18" width="45" height="46">
            <path d="M16 18.536H61V63.536H16V18.536Z" fill="white"/>
        </mask>
        <g mask="url(#mask0_3_18)">
            <mask id="mask1_3_18" style="mask-type:luminance" maskUnits="userSpaceOnUse" x="16" y="18" width="45" height="46">
                <path d="M56.8595 44.9373C56.9627 43.7617 56.7562 42.8855 56.5086 42.2585C56.4446 42.0955 56.3731 41.9404 56.2963 41.7919C54.5772 38.466 49.8857 38.6114 48.1324 34.7561C47.6183 33.626 47.4209 32.453 47.3447 31.6988C47.3195 31.4469 47.308 31.2425 47.3021 31.1012C49.3646 31.2016 52.2463 31.8221 54.5414 34.1608C56.8444 36.5076 57.3129 39.3177 57.433 40.353C57.4341 39.0827 57.2345 37.089 56.1209 35.024C55.6247 34.1039 53.6564 30.7942 49.7119 29.814C48.9734 29.6308 48.284 29.5583 47.6765 29.5462C48.1727 29.4683 48.6768 29.4291 49.1868 29.4291C50.4901 29.4291 51.7555 29.6844 52.9467 30.1874C54.0972 30.6738 55.1298 31.3692 56.0166 32.2549C56.9032 33.1403 57.5995 34.1718 58.0865 35.3206C58.5902 36.5106 58.8458 37.7741 58.8458 39.0757C58.8458 40.3778 58.5902 41.6409 58.0865 42.8313C57.7663 43.5866 57.3555 44.2913 56.8595 44.9373ZM56.4135 50.8333C55.9271 52.0306 55.2134 53.1047 54.2915 54.0254C53.3695 54.9455 52.2948 55.6588 51.0959 56.1441C50.3344 56.4522 49.5451 56.6608 48.7375 56.7675C49.6421 56.0086 50.1169 55.2433 50.3857 54.6253C50.4556 54.4643 50.5151 54.3048 50.5658 54.1459C51.7046 50.5798 48.2847 47.3694 49.7743 43.4045C50.2109 42.2429 50.902 41.2738 51.3821 40.6868C51.5425 40.4914 51.6793 40.3381 51.7751 40.2344C53.1631 41.7619 54.7611 44.2355 54.7278 47.5098C54.6949 50.7959 53.0367 53.1139 52.3883 53.9309C53.2882 53.0331 54.5592 51.4826 55.2337 49.2361C55.5343 48.2352 56.4863 44.5045 54.3909 41.026C53.9985 40.3744 53.5617 39.8369 53.1406 39.3989C53.5466 39.6944 53.9309 40.0224 54.2915 40.3832C55.2134 41.3033 55.9271 42.3773 56.4135 43.5745C56.8824 44.7304 57.1209 45.9512 57.1209 47.204C57.1209 48.4565 56.8824 49.6775 56.4135 50.8333ZM44.2467 60.6216C43.0554 61.1244 41.7903 61.3797 40.487 61.3797C39.1837 61.3797 37.9183 61.1244 36.7269 60.6216C35.9703 60.3018 35.2647 59.8915 34.6182 59.3966C35.7952 59.4992 36.6726 59.2935 37.3002 59.0457C37.4633 58.9818 37.6188 58.9109 37.7674 58.8341C41.0973 57.1166 40.9519 52.431 44.8121 50.68C45.9434 50.1666 47.118 49.9697 47.8732 49.8936C48.1254 49.8681 48.3302 49.8567 48.4715 49.8515C48.3717 51.9113 47.7497 54.7889 45.408 57.0808C43.0584 59.381 40.2445 59.849 39.2079 59.9687C40.48 59.9698 42.4767 59.7711 44.5439 58.659C45.4652 58.1636 48.7796 56.1976 49.7604 52.2582C49.9445 51.5202 50.0166 50.8317 50.0285 50.2249C50.1065 50.7203 50.1457 51.224 50.1457 51.7333C50.1457 53.0349 49.8902 54.2985 49.3865 55.4882C48.9002 56.6372 48.2038 57.6691 47.317 58.5548C46.4304 59.4405 45.3972 60.1357 44.2467 60.6216ZM28.7142 58.9507C27.5152 58.4648 26.4401 57.7522 25.5183 56.8314C24.5966 55.9113 23.8829 54.8373 23.3966 53.6399C23.088 52.8798 22.8794 52.0912 22.7728 51.2845C23.5325 52.1884 24.2987 52.6622 24.9175 52.9307C25.0784 53.0002 25.2384 53.0603 25.398 53.111C28.9684 54.2483 32.1829 50.8321 36.1524 52.3205C37.3157 52.7567 38.2861 53.4463 38.8739 53.9262C39.0695 54.0858 39.223 54.2224 39.3266 54.318C37.7976 55.7043 35.3206 57.3005 32.0421 57.2676C28.7516 57.2341 26.431 55.5782 25.613 54.9305C26.5117 55.8294 28.0645 57.0988 30.3136 57.7722C31.316 58.0725 35.0513 59.0232 38.534 56.9305C39.1864 56.5386 39.7248 56.1031 40.1632 55.6824C39.8673 56.0876 39.5391 56.4713 39.1786 56.8314C38.2564 57.7522 37.1814 58.4648 35.9825 58.9507C34.825 59.4195 33.6022 59.657 32.3483 59.657C31.0942 59.657 29.8716 59.4195 28.7142 58.9507ZM20.9834 49.8659C20.0966 48.9802 19.4002 47.9483 18.9137 46.8C18.4098 45.6096 18.1542 44.3467 18.1542 43.0444C18.1542 41.7428 18.4098 40.4793 18.9137 39.2895C19.2337 38.534 19.6443 37.8288 20.1403 37.1829C20.0373 38.3589 20.2435 39.2353 20.4912 39.8617C20.5557 40.0246 20.6267 40.1801 20.7033 40.3282C22.423 43.6541 27.1146 43.509 28.8676 47.364C29.3817 48.4941 29.5791 49.6676 29.655 50.4218C29.6805 50.6732 29.6922 50.8776 29.6976 51.0189C27.6351 50.9192 24.7537 50.2987 22.4586 47.96C20.1554 45.6125 19.6871 42.8025 19.5672 41.7671C19.5663 43.0374 19.7653 45.0318 20.8788 47.0962C21.3748 48.0163 23.3434 51.3266 27.2879 52.3066C28.0264 52.4898 28.716 52.5618 29.3235 52.574C28.8273 52.6518 28.3232 52.6914 27.8132 52.6914C26.5097 52.6914 25.2447 52.4362 24.0533 51.9327C22.9028 51.447 21.87 50.7516 20.9834 49.8659ZM20.5868 31.2869C21.0729 30.0895 21.7866 29.0154 22.7083 28.0954C23.63 27.1746 24.7052 26.4618 25.9041 25.9761C26.6652 25.6679 27.4546 25.4593 28.2628 25.3533C27.3577 26.1116 26.8829 26.8768 26.6143 27.4949C26.5444 27.6558 26.4847 27.8158 26.434 27.9749C25.2952 31.541 28.7155 34.7514 27.2257 38.7156C26.7889 39.8772 26.098 40.8464 25.6177 41.4333C25.4575 41.6294 25.3209 41.782 25.2249 41.8857C23.8371 40.3589 22.2391 37.8846 22.2722 34.6103C22.3051 31.3242 23.9636 29.0069 24.6119 28.1899C23.7118 29.0875 22.4408 30.638 21.7663 32.884C21.4657 33.8853 20.514 37.6157 22.6094 41.0942C23.0017 41.7457 23.438 42.2839 23.8592 42.7212C23.4534 42.4261 23.0691 42.0978 22.7083 41.7376C21.7866 40.8169 21.0729 39.7428 20.5868 38.5457C20.1173 37.3897 19.8794 36.1689 19.8794 34.9162C19.8794 33.6641 20.1173 32.4426 20.5868 31.2869ZM32.7531 21.4992C33.9443 20.9957 35.2095 20.7404 36.513 20.7404C37.8165 20.7404 39.0814 20.9957 40.2729 21.4992C41.0299 21.8183 41.7353 22.2286 42.3821 22.7242C41.2046 22.6209 40.3277 22.8273 39.7 23.0744C39.5367 23.139 39.3809 23.2099 39.2326 23.2865C35.9027 25.0035 36.0483 29.6891 32.1879 31.4401C31.0563 31.9535 29.8818 32.1505 29.1266 32.2265C28.8748 32.252 28.6698 32.2635 28.5285 32.2693C28.6285 30.2095 29.2501 27.3312 31.5916 25.0393C33.9416 22.7391 36.7553 22.2712 37.7921 22.1514C36.5202 22.1507 34.5235 22.3497 32.4561 23.4616C31.5348 23.9572 28.2206 25.9232 27.2394 29.8624C27.0557 30.6 26.9834 31.2884 26.9712 31.8952C26.8935 31.3999 26.854 30.8961 26.854 30.3868C26.854 29.0852 27.1096 27.8217 27.6135 26.6319C28.1001 25.4829 28.7964 24.4517 29.683 23.566C30.5698 22.6803 31.6026 21.9849 32.7531 21.4992ZM47.706 41.0602C47.706 46.138 43.5844 50.2541 38.5 50.2541C33.4156 50.2541 29.2942 46.138 29.2942 41.0602C29.2942 35.9821 33.4156 31.866 38.5 31.866C43.5844 31.866 47.706 35.9821 47.706 41.0602ZM48.2858 23.1696C49.4845 23.6554 50.5599 24.3679 51.4819 25.2887C52.4032 26.2095 53.1169 27.2828 53.6032 28.4802C53.912 29.2407 54.1209 30.0289 54.2275 30.8363C53.4678 29.9322 52.7015 29.4579 52.0825 29.1894C51.9216 29.1199 51.7618 29.0605 51.602 29.0098C48.0314 27.8723 44.8173 31.2884 40.8476 29.8003C39.6845 29.3641 38.7141 28.6738 38.1261 28.1944C37.9303 28.0344 37.777 27.8977 37.6732 27.8021C39.2027 26.4163 41.6794 24.8203 44.9582 24.8532C48.2482 24.886 50.5692 26.5426 51.3868 27.1897C50.4885 26.2907 48.9353 25.0213 46.6864 24.3479C45.6838 24.0477 41.9489 23.0976 38.4657 25.1897C37.8136 25.5815 37.2749 26.0177 36.8366 26.4381C37.1325 26.0326 37.4611 25.6488 37.8217 25.2887C38.7434 24.3679 39.8188 23.6554 41.0177 23.1696C42.175 22.701 43.3975 22.4631 44.6517 22.4631C45.906 22.4631 47.1284 22.701 48.2858 23.1696ZM38.5 18.589C26.0736 18.589 16 28.6497 16 41.0602C16 53.4704 26.0736 63.5314 38.5 63.5314C50.9264 63.5314 61 53.4704 61 41.0602C61 28.6497 50.9264 18.589 38.5 18.589Z" fill="white"/>
            </mask>
            <g mask="url(#mask1_3_18)">
                <mask id="mask2_3_18" style="mask-type:luminance" maskUnits="userSpaceOnUse" x="16" y="18" width="45" height="46">
                    <path d="M56.8595 44.9373C56.9627 43.7617 56.7562 42.8855 56.5086 42.2585C56.4446 42.0955 56.3731 41.9404 56.2963 41.7919C54.5772 38.466 49.8857 38.6114 48.1324 34.7561C47.6183 33.626 47.4209 32.453 47.3447 31.6988C47.3195 31.4469 47.308 31.2425 47.3021 31.1012C49.3646 31.2016 52.2463 31.8221 54.5414 34.1608C56.8444 36.5076 57.3129 39.3177 57.433 40.353C57.4341 39.0827 57.2345 37.089 56.1209 35.024C55.6247 34.1039 53.6564 30.7942 49.7119 29.814C48.9734 29.6308 48.284 29.5583 47.6765 29.5462C48.1727 29.4683 48.6768 29.4291 49.1868 29.4291C50.4901 29.4291 51.7555 29.6844 52.9467 30.1874C54.0972 30.6738 55.1298 31.3692 56.0166 32.2549C56.9032 33.1403 57.5995 34.1718 58.0865 35.3206C58.5902 36.5106 58.8458 37.7741 58.8458 39.0757C58.8458 40.3778 58.5902 41.6409 58.0865 42.8313C57.7663 43.5866 57.3555 44.2913 56.8595 44.9373ZM56.4135 50.8333C55.9271 52.0306 55.2134 53.1047 54.2915 54.0254C53.3695 54.9455 52.2948 55.6588 51.0959 56.1441C50.3344 56.4522 49.5451 56.6608 48.7375 56.7675C49.6421 56.0086 50.1169 55.2433 50.3857 54.6253C50.4556 54.4643 50.5151 54.3048 50.5658 54.1459C51.7046 50.5798 48.2847 47.3694 49.7743 43.4045C50.2109 42.2429 50.902 41.2738 51.3821 40.6868C51.5425 40.4914 51.6793 40.3381 51.7751 40.2344C53.1631 41.7619 54.7611 44.2355 54.7278 47.5098C54.6949 50.7959 53.0367 53.1139 52.3883 53.9309C53.2882 53.0331 54.5592 51.4826 55.2337 49.2361C55.5343 48.2352 56.4863 44.5045 54.3909 41.026C53.9985 40.3744 53.5617 39.8369 53.1406 39.3989C53.5466 39.6944 53.9309 40.0224 54.2915 40.3832C55.2134 41.3033 55.9271 42.3773 56.4135 43.5745C56.8824 44.7304 57.1209 45.9512 57.1209 47.204C57.1209 48.4565 56.8824 49.6775 56.4135 50.8333ZM44.2467 60.6216C43.0554 61.1244 41.7903 61.3797 40.487 61.3797C39.1837 61.3797 37.9183 61.1244 36.7269 60.6216C35.9703 60.3018 35.2647 59.8915 34.6182 59.3966C35.7952 59.4992 36.6726 59.2935 37.3002 59.0457C37.4633 58.9818 37.6188 58.9109 37.7674 58.8341C41.0973 57.1166 40.9519 52.431 44.8121 50.68C45.9434 50.1666 47.118 49.9697 47.8732 49.8936C48.1254 49.8681 48.3302 49.8567 48.4715 49.8515C48.3717 51.9113 47.7497 54.7889 45.408 57.0808C43.0584 59.381 40.2445 59.849 39.2079 59.9687C40.48 59.9698 42.4767 59.7711 44.5439 58.659C45.4652 58.1636 48.7796 56.1976 49.7604 52.2582C49.9445 51.5202 50.0166 50.8317 50.0285 50.2249C50.1065 50.7203 50.1457 51.224 50.1457 51.7333C50.1457 53.0349 49.8902 54.2985 49.3865 55.4882C48.9002 56.6372 48.2038 57.6691 47.317 58.5548C46.4304 59.4405 45.3972 60.1357 44.2467 60.6216ZM28.7142 58.9507C27.5152 58.4648 26.4401 57.7522 25.5183 56.8314C24.5966 55.9113 23.8829 54.8373 23.3966 53.6399C23.088 52.8798 22.8794 52.0912 22.7728 51.2845C23.5325 52.1884 24.2987 52.6622 24.9175 52.9307C25.0784 53.0002 25.2384 53.0603 25.398 53.111C28.9684 54.2483 32.1829 50.8321 36.1524 52.3205C37.3157 52.7567 38.2861 53.4463 38.8739 53.9262C39.0695 54.0858 39.223 54.2224 39.3266 54.318C37.7976 55.7043 35.3206 57.3005 32.0421 57.2676C28.7516 57.2341 26.431 55.5782 25.613 54.9305C26.5117 55.8294 28.0645 57.0988 30.3136 57.7722C31.316 58.0725 35.0513 59.0232 38.534 56.9305C39.1864 56.5386 39.7248 56.1031 40.1632 55.6824C39.8673 56.0876 39.5391 56.4713 39.1786 56.8314C38.2564 57.7522 37.1814 58.4648 35.9825 58.9507C34.825 59.4195 33.6022 59.657 32.3483 59.657C31.0942 59.657 29.8716 59.4195 28.7142 58.9507ZM20.9834 49.8659C20.0966 48.9802 19.4002 47.9483 18.9137 46.8C18.4098 45.6096 18.1542 44.3467 18.1542 43.0444C18.1542 41.7428 18.4098 40.4793 18.9137 39.2895C19.2337 38.534 19.6443 37.8288 20.1403 37.1829C20.0373 38.3589 20.2435 39.2353 20.4912 39.8617C20.5557 40.0246 20.6267 40.1801 20.7033 40.3282C22.423 43.6541 27.1146 43.509 28.8676 47.364C29.3817 48.4941 29.5791 49.6676 29.655 50.4218C29.6805 50.6732 29.6922 50.8776 29.6976 51.0189C27.6351 50.9192 24.7537 50.2987 22.4586 47.96C20.1554 45.6125 19.6871 42.8025 19.5672 41.7671C19.5663 43.0374 19.7653 45.0318 20.8788 47.0962C21.3748 48.0163 23.3434 51.3266 27.2879 52.3066C28.0264 52.4898 28.716 52.5618 29.3235 52.574C28.8273 52.6518 28.3232 52.6914 27.8132 52.6914C26.5097 52.6914 25.2447 52.4362 24.0533 51.9327C22.9028 51.447 21.87 50.7516 20.9834 49.8659ZM20.5868 31.2869C21.0729 30.0895 21.7866 29.0154 22.7083 28.0954C23.63 27.1746 24.7052 26.4618 25.9041 25.9761C26.6652 25.6679 27.4546 25.4593 28.2628 25.3533C27.3577 26.1116 26.8829 26.8768 26.6143 27.4949C26.5444 27.6558 26.4847 27.8158 26.434 27.9749C25.2952 31.541 28.7155 34.7514 27.2257 38.7156C26.7889 39.8772 26.098 40.8464 25.6177 41.4333C25.4575 41.6294 25.3209 41.782 25.2249 41.8857C23.8371 40.3589 22.2391 37.8846 22.2722 34.6103C22.3051 31.3242 23.9636 29.0069 24.6119 28.1899C23.7118 29.0875 22.4408 30.638 21.7663 32.884C21.4657 33.8853 20.514 37.6157 22.6094 41.0942C23.0017 41.7457 23.438 42.2839 23.8592 42.7212C23.4534 42.4261 23.0691 42.0978 22.7083 41.7376C21.7866 40.8169 21.0729 39.7428 20.5868 38.5457C20.1173 37.3897 19.8794 36.1689 19.8794 34.9162C19.8794 33.6641 20.1173 32.4426 20.5868 31.2869ZM32.7531 21.4992C33.9443 20.9957 35.2095 20.7404 36.513 20.7404C37.8165 20.7404 39.0814 20.9957 40.2729 21.4992C41.0299 21.8183 41.7353 22.2286 42.3821 22.7242C41.2046 22.6209 40.3277 22.8273 39.7 23.0744C39.5367 23.139 39.3809 23.2099 39.2326 23.2865C35.9027 25.0035 36.0483 29.6891 32.1879 31.4401C31.0563 31.9535 29.8818 32.1505 29.1266 32.2265C28.8748 32.252 28.6698 32.2635 28.5285 32.2693C28.6285 30.2095 29.2501 27.3312 31.5916 25.0393C33.9416 22.7391 36.7553 22.2712 37.7921 22.1514C36.5202 22.1507 34.5235 22.3497 32.4561 23.4616C31.5348 23.9572 28.2206 25.9232 27.2394 29.8624C27.0557 30.6 26.9834 31.2884 26.9712 31.8952C26.8935 31.3999 26.854 30.8961 26.854 30.3868C26.854 29.0852 27.1096 27.8217 27.6135 26.6319C28.1001 25.4829 28.7964 24.4517 29.683 23.566C30.5698 22.6803 31.6026 21.9849 32.7531 21.4992ZM47.706 41.0602C47.706 46.138 43.5844 50.2541 38.5 50.2541C33.4156 50.2541 29.2942 46.138 29.2942 41.0602C29.2942 35.9821 33.4156 31.866 38.5 31.866C43.5844 31.866 47.706 35.9821 47.706 41.0602ZM48.2858 23.1696C49.4845 23.6554 50.5599 24.3679 51.4819 25.2887C52.4032 26.2095 53.1169 27.2828 53.6032 28.4802C53.912 29.2407 54.1209 30.0289 54.2275 30.8363C53.4678 29.9322 52.7015 29.4579 52.0825 29.1894C51.9216 29.1199 51.7618 29.0605 51.602 29.0098C48.0314 27.8723 44.8173 31.2884 40.8476 29.8003C39.6845 29.3641 38.7141 28.6738 38.1261 28.1944C37.9303 28.0344 37.777 27.8977 37.6732 27.8021C39.2027 26.4163 41.6794 24.8203 44.9582 24.8532C48.2482 24.886 50.5692 26.5426 51.3868 27.1897C50.4885 26.2907 48.9353 25.0213 46.6864 24.3479C45.6838 24.0477 41.9489 23.0976 38.4657 25.1897C37.8136 25.5815 37.2749 26.0177 36.8366 26.4381C37.1325 26.0326 37.4611 25.6488 37.8217 25.2887C38.7434 24.3679 39.8188 23.6554 41.0177 23.1696C42.175 22.701 43.3975 22.4631 44.6517 22.4631C45.906 22.4631 47.1284 22.701 48.2858 23.1696ZM38.5 18.589C26.0736 18.589 16 28.6497 16 41.0602C16 53.4704 26.0736 63.5314 38.5 63.5314C50.9264 63.5314 61 53.4704 61 41.0602C61 28.6497 50.9264 18.589 38.5 18.589Z" fill="white"/>
                </mask>
                <g mask="url(#mask2_3_18)">
                    <path d="M83.0448 36.5627L33.9966 -3.42743L-6.04477 45.5577L43.0034 85.5478L83.0448 36.5627Z" fill="url(#paint0_linear_3_18)"/>
                </g>
            </g>
        </g>
    </g>
    <defs>
        <filter id="filter0_d_3_18" x="55.88" y="0" width="250.461" height="70.016" filterUnits="userSpaceOnUse" color-interpolation-filters="sRGB">
            <feFlood flood-opacity="0" result="BackgroundImageFix"/>
            <feColorMatrix in="SourceAlpha" type="matrix" values="0 0 0 0 0 0 0 0 0 0 0 0 0 0 0 0 0 0 127 0" result="hardAlpha"/>
            <feOffset/>
            <feGaussianBlur stdDeviation="8"/>
            <feComposite in2="hardAlpha" operator="out"/>
            <feColorMatrix type="matrix" values="0 0 0 0 0.431373 0 0 0 0 0.0941176 0 0 0 0 0.701961 0 0 0 0.5 0"/>
            <feBlend mode="normal" in2="BackgroundImageFix" result="effect1_dropShadow_3_18"/>
            <feBlend mode="normal" in="SourceGraphic" in2="effect1_dropShadow_3_18" result="shape"/>
        </filter>
        <filter id="filter1_d_3_18" x="0" y="2.58898" width="77" height="76.9424" filterUnits="userSpaceOnUse" color-interpolation-filters="sRGB">
            <feFlood flood-opacity="0" result="BackgroundImageFix"/>
            <feColorMatrix in="SourceAlpha" type="matrix" values="0 0 0 0 0 0 0 0 0 0 0 0 0 0 0 0 0 0 127 0" result="hardAlpha"/>
            <feOffset/>
            <feGaussianBlur stdDeviation="8"/>
            <feComposite in2="hardAlpha" operator="out"/>
            <feColorMatrix type="matrix" values="0 0 0 0 0.431373 0 0 0 0 0.0941176 0 0 0 0 0.701961 0 0 0 0.5 0"/>
            <feBlend mode="normal" in2="BackgroundImageFix" result="effect1_dropShadow_3_18"/>
            <feBlend mode="normal" in="SourceGraphic" in2="effect1_dropShadow_3_18" result="shape"/>
        </filter>
        <linearGradient id="paint0_linear_3_18" x1="58.5206" y1="16.5675" x2="18.5408" y2="65.603" gradientUnits="userSpaceOnUse">
            <stop stop-color="#8333D2"/>
            <stop offset="0.125" stop-color="#8333D2"/>
            <stop offset="0.140625" stop-color="#8333D2"/>
            <stop offset="0.144531" stop-color="#8333D2"/>
            <stop offset="0.148438" stop-color="#8333D2"/>
            <stop offset="0.152344" stop-color="#8333D2"/>
            <stop offset="0.15625" stop-color="#8333D2"/>
            <stop offset="0.160156" stop-color="#8334D1"/>
            <stop offset="0.164062" stop-color="#8234D1"/>
            <stop offset="0.167969" stop-color="#8234D1"/>
            <stop offset="0.171875" stop-color="#8234D1"/>
            <stop offset="0.175781" stop-color="#8234D0"/>
            <stop offset="0.179687" stop-color="#8234D0"/>
            <stop offset="0.183594" stop-color="#8235D0"/>
            <stop offset="0.1875" stop-color="#8235CF"/>
            <stop offset="0.191406" stop-color="#8235CF"/>
            <stop offset="0.195312" stop-color="#8135CF"/>
            <stop offset="0.199219" stop-color="#8135CF"/>
            <stop offset="0.203125" stop-color="#8135CE"/>
            <stop offset="0.207031" stop-color="#8135CE"/>
            <stop offset="0.210938" stop-color="#8136CE"/>
            <stop offset="0.214844" stop-color="#8136CE"/>
            <stop offset="0.21875" stop-color="#8136CD"/>
            <stop offset="0.222656" stop-color="#8136CD"/>
            <stop offset="0.226562" stop-color="#8136CD"/>
            <stop offset="0.230469" stop-color="#8036CC"/>
            <stop offset="0.234375" stop-color="#8037CC"/>
            <stop offset="0.238281" stop-color="#8037CC"/>
            <stop offset="0.242188" stop-color="#8037CC"/>
            <stop offset="0.246094" stop-color="#8037CB"/>
            <stop offset="0.25" stop-color="#8037CB"/>
            <stop offset="0.253906" stop-color="#8037CB"/>
            <stop offset="0.257812" stop-color="#8037CB"/>
            <stop offset="0.261719" stop-color="#7F38CA"/>
            <stop offset="0.265625" stop-color="#7F38CA"/>
            <stop offset="0.269531" stop-color="#7F38CA"/>
            <stop offset="0.273438" stop-color="#7F38CA"/>
            <stop offset="0.277344" stop-color="#7F38C9"/>
            <stop offset="0.28125" stop-color="#7F38C9"/>
            <stop offset="0.285156" stop-color="#7F38C9"/>
            <stop offset="0.289062" stop-color="#7F39C9"/>
            <stop offset="0.292969" stop-color="#7F39C8"/>
            <stop offset="0.296875" stop-color="#7E39C8"/>
            <stop offset="0.300781" stop-color="#7E39C8"/>
            <stop offset="0.304688" stop-color="#7E39C8"/>
            <stop offset="0.308594" stop-color="#7E39C7"/>
            <stop offset="0.3125" stop-color="#7E3AC7"/>
            <stop offset="0.316406" stop-color="#7E3AC7"/>
            <stop offset="0.320312" stop-color="#7E3AC7"/>
            <stop offset="0.324219" stop-color="#7E3AC6"/>
            <stop offset="0.328125" stop-color="#7E3AC6"/>
            <stop offset="0.332031" stop-color="#7D3AC6"/>
            <stop offset="0.335938" stop-color="#7D3AC5"/>
            <stop offset="0.339844" stop-color="#7D3BC5"/>
            <stop offset="0.34375" stop-color="#7D3BC5"/>
            <stop offset="0.347656" stop-color="#7D3BC5"/>
            <stop offset="0.351562" stop-color="#7D3BC4"/>
            <stop offset="0.355469" stop-color="#7D3BC4"/>
            <stop offset="0.359375" stop-color="#7D3BC4"/>
            <stop offset="0.363281" stop-color="#7D3BC4"/>
            <stop offset="0.367187" stop-color="#7C3BC3"/>
            <stop offset="0.371094" stop-color="#7C3BC3"/>
            <stop offset="0.375" stop-color="#7C3AC3"/>
            <stop offset="0.378906" stop-color="#7C3AC3"/>
            <stop offset="0.382812" stop-color="#7C39C2"/>
            <stop offset="0.386719" stop-color="#7B39C2"/>
            <stop offset="0.390625" stop-color="#7B38C2"/>
            <stop offset="0.394531" stop-color="#7B38C2"/>
            <stop offset="0.398437" stop-color="#7B37C1"/>
            <stop offset="0.402344" stop-color="#7B37C1"/>
            <stop offset="0.40625" stop-color="#7A36C1"/>
            <stop offset="0.410156" stop-color="#7A36C1"/>
            <stop offset="0.414062" stop-color="#7A35C0"/>
            <stop offset="0.417969" stop-color="#7A35C0"/>
            <stop offset="0.421875" stop-color="#7A34C0"/>
            <stop offset="0.425781" stop-color="#7934C0"/>
            <stop offset="0.429688" stop-color="#7933BF"/>
            <stop offset="0.433594" stop-color="#7933BF"/>
            <stop offset="0.4375" stop-color="#7932BF"/>
            <stop offset="0.441406" stop-color="#7932BF"/>
            <stop offset="0.445312" stop-color="#7831BF"/>
            <stop offset="0.449219" stop-color="#7831BE"/>
            <stop offset="0.453125" stop-color="#7830BE"/>
            <stop offset="0.457031" stop-color="#7830BE"/>
            <stop offset="0.460938" stop-color="#782FBE"/>
            <stop offset="0.464844" stop-color="#772FBD"/>
            <stop offset="0.46875" stop-color="#772EBD"/>
            <stop offset="0.472656" stop-color="#772EBD"/>
            <stop offset="0.476562" stop-color="#772DBD"/>
            <stop offset="0.480469" stop-color="#772DBC"/>
            <stop offset="0.484375" stop-color="#762CBC"/>
            <stop offset="0.488281" stop-color="#762CBC"/>
            <stop offset="0.492188" stop-color="#762BBC"/>
            <stop offset="0.496094" stop-color="#762BBB"/>
            <stop offset="0.5" stop-color="#762ABB"/>
            <stop offset="0.503906" stop-color="#752ABB"/>
            <stop offset="0.507812" stop-color="#7529BB"/>
            <stop offset="0.511719" stop-color="#7529BA"/>
            <stop offset="0.515625" stop-color="#7529BA"/>
            <stop offset="0.519531" stop-color="#7528BA"/>
            <stop offset="0.523438" stop-color="#7428BA"/>
            <stop offset="0.527344" stop-color="#7427BA"/>
            <stop offset="0.53125" stop-color="#7427B9"/>
            <stop offset="0.535156" stop-color="#7426B9"/>
            <stop offset="0.539062" stop-color="#7426B9"/>
            <stop offset="0.542969" stop-color="#7325B9"/>
            <stop offset="0.546875" stop-color="#7325B8"/>
            <stop offset="0.550781" stop-color="#7324B8"/>
            <stop offset="0.554688" stop-color="#7324B8"/>
            <stop offset="0.558594" stop-color="#7323B8"/>
            <stop offset="0.5625" stop-color="#7323B7"/>
            <stop offset="0.566406" stop-color="#7222B7"/>
            <stop offset="0.570312" stop-color="#7222B7"/>
            <stop offset="0.574219" stop-color="#7221B7"/>
            <stop offset="0.578125" stop-color="#7221B7"/>
            <stop offset="0.582031" stop-color="#7220B6"/>
            <stop offset="0.585938" stop-color="#7120B6"/>
            <stop offset="0.589844" stop-color="#7120B6"/>
            <stop offset="0.59375" stop-color="#711FB6"/>
            <stop offset="0.597656" stop-color="#711FB5"/>
            <stop offset="0.601562" stop-color="#711EB5"/>
            <stop offset="0.605469" stop-color="#701EB5"/>
            <stop offset="0.609375" stop-color="#701DB5"/>
            <stop offset="0.613281" stop-color="#701DB4"/>
            <stop offset="0.617188" stop-color="#701CB4"/>
            <stop offset="0.621094" stop-color="#701CB4"/>
            <stop offset="0.625" stop-color="#701BB4"/>
            <stop offset="0.628906" stop-color="#6F1BB4"/>
            <stop offset="0.632812" stop-color="#6F1BB3"/>
            <stop offset="0.636719" stop-color="#6F1AB3"/>
            <stop offset="0.640625" stop-color="#6F1AB3"/>
            <stop offset="0.644531" stop-color="#6F19B3"/>
            <stop offset="0.648438" stop-color="#6E19B3"/>
            <stop offset="0.652344" stop-color="#6E18B2"/>
            <stop offset="0.65625" stop-color="#6E18B2"/>
            <stop offset="0.660156" stop-color="#6E17B2"/>
            <stop offset="0.664062" stop-color="#6E17B2"/>
            <stop offset="0.667969" stop-color="#6E17B1"/>
            <stop offset="0.671875" stop-color="#6D16B1"/>
            <stop offset="0.675781" stop-color="#6D16B1"/>
            <stop offset="0.679688" stop-color="#6D15B1"/>
            <stop offset="0.683594" stop-color="#6D15B1"/>
            <stop offset="0.6875" stop-color="#6D14B0"/>
            <stop offset="0.691406" stop-color="#6D14B0"/>
            <stop offset="0.695313" stop-color="#6C13B0"/>
            <stop offset="0.699219" stop-color="#6C13B0"/>
            <stop offset="0.703125" stop-color="#6C13AF"/>
            <stop offset="0.707031" stop-color="#6C12AF"/>
            <stop offset="0.710938" stop-color="#6C12AF"/>
            <stop offset="0.714844" stop-color="#6B11AF"/>
            <stop offset="0.71875" stop-color="#6B11AF"/>
            <stop offset="0.722656" stop-color="#6B10AE"/>
            <stop offset="0.726563" stop-color="#6B10AE"/>
            <stop offset="0.730469" stop-color="#6B10AE"/>
            <stop offset="0.734375" stop-color="#6B0FAE"/>
            <stop offset="0.738281" stop-color="#6A0FAE"/>
            <stop offset="0.742188" stop-color="#6A0EAD"/>
            <stop offset="0.746094" stop-color="#6A0EAD"/>
            <stop offset="0.75" stop-color="#6A0EAD"/>
            <stop offset="0.753906" stop-color="#6A0DAD"/>
            <stop offset="0.757812" stop-color="#6A0DAD"/>
            <stop offset="0.761719" stop-color="#690CAC"/>
            <stop offset="0.765625" stop-color="#690CAB"/>
            <stop offset="0.769531" stop-color="#680CAA"/>
            <stop offset="0.773437" stop-color="#670CA9"/>
            <stop offset="0.777344" stop-color="#670CA8"/>
            <stop offset="0.78125" stop-color="#660CA7"/>
            <stop offset="0.785156" stop-color="#660CA6"/>
            <stop offset="0.789062" stop-color="#650CA6"/>
            <stop offset="0.792969" stop-color="#650CA5"/>
            <stop offset="0.796875" stop-color="#640CA4"/>
            <stop offset="0.800781" stop-color="#640CA3"/>
            <stop offset="0.804687" stop-color="#630CA2"/>
            <stop offset="0.808594" stop-color="#620CA1"/>
            <stop offset="0.8125" stop-color="#620CA0"/>
            <stop offset="0.816406" stop-color="#610C9F"/>
            <stop offset="0.820312" stop-color="#610B9E"/>
            <stop offset="0.824219" stop-color="#600B9D"/>
            <stop offset="0.828125" stop-color="#600B9D"/>
            <stop offset="0.832031" stop-color="#5F0B9C"/>
            <stop offset="0.835938" stop-color="#5F0B9B"/>
            <stop offset="0.839844" stop-color="#5E0B9A"/>
            <stop offset="0.84375" stop-color="#5E0B99"/>
            <stop offset="0.847656" stop-color="#5D0B98"/>
            <stop offset="0.851562" stop-color="#5D0B97"/>
            <stop offset="0.855469" stop-color="#5C0B97"/>
            <stop offset="0.859375" stop-color="#5C0B96"/>
            <stop offset="0.875" stop-color="#5C0B96"/>
            <stop offset="1" stop-color="#5C0B96"/>
        </linearGradient>
    </defs>
</svg>
